<svg width="61" height="60" viewBox="0 0 61 60" fill="none" xmlns="http://www.w3.org/2000/svg">
<g clip-path="url(#clip0)">
<rect width="59.7766" height="59.7766" transform="translate(0.837646 0.223358)" fill="url(#paint0_linear)"/>
<path d="M51.7413 30.1117C51.9281 32.1665 50.527 33.8477 48.5656 33.8477H12.8864C10.925 33.8477 9.52399 32.1665 9.71079 30.1117L11.6722 9.37667C11.859 7.32184 13.6336 5.64062 15.5951 5.64062H45.857C47.8184 5.64062 49.593 7.32184 49.7798 9.37667L51.7413 30.1117Z" fill="#B4D7EE"/>
<path d="M9.15039 28.7107H14.7544V36.1827H9.15039V28.7107Z" fill="#3E4347"/>
<path d="M46.6975 28.7107H52.3016V36.1827H46.6975V28.7107Z" fill="#3E4347"/>
<path d="M14.4744 47.7645H20.0784V57.198H14.4744V47.7645Z" fill="#3E4347"/>
<path d="M41.3738 47.7645H46.9778V57.198H41.3738V47.7645Z" fill="#3E4347"/>
<path d="M39.5058 23.5736C39.2256 26.0021 37.2642 28.0569 35.3028 28.0569H26.1495C24.0946 28.0569 22.2266 26.0955 21.9464 23.5736L20.2652 9.93708C19.985 7.50865 21.386 5.45383 23.3474 5.45383H38.0114C40.0662 5.45383 41.4672 7.50865 41.0936 9.93708L39.5058 23.5736Z" fill="#428BC1"/>
<path d="M22.3198 55.2366C22.133 54.7696 21.5726 54.3026 21.1056 54.3026H13.6336C13.0731 54.3026 12.6061 54.6762 12.4193 55.2366L11.0183 59.066C10.8315 59.533 11.1117 60 11.6721 60H22.8803C23.4407 60 23.7209 59.6264 23.5341 59.066L22.3198 55.2366Z" fill="#94989B"/>
<path d="M50.4335 59.066L49.1259 55.2366C48.9391 54.7696 48.3787 54.3026 47.9116 54.3026H40.4396C39.8792 54.3026 39.4122 54.6762 39.2254 55.2366L37.9177 59.066C37.7309 59.533 38.0111 60 38.5715 60H49.7797C50.2467 60 50.5269 59.6264 50.4335 59.066Z" fill="#94989B"/>
<path d="M43.9889 5.82742C43.9889 7.88224 42.4011 9.56346 40.4397 9.56346H20.9189C18.9574 9.56346 17.3696 7.88224 17.3696 5.82742V3.9594C17.3696 1.90458 18.9574 0.223358 20.9189 0.223358H40.4397C42.4011 0.223358 43.9889 1.90458 43.9889 3.9594V5.82742Z" fill="#29ABE2"/>
<path d="M15.3149 27.4965L15.0347 25.535C14.8479 24.5076 14.0072 23.667 13.0732 23.667H10.5514C9.61739 23.667 8.77679 24.5076 8.58998 25.535L8.30978 27.4965C8.12298 28.5239 8.77679 29.3645 9.7108 29.3645H13.9138C14.8479 29.3645 15.5017 28.5239 15.3149 27.4965Z" fill="#29ABE2"/>
<path d="M52.9555 27.4965L52.6753 25.535C52.4885 24.5076 51.6479 23.667 50.7139 23.667H48.192C47.258 23.667 46.4174 24.5076 46.2306 25.535L45.9504 27.4965C45.7636 28.5239 46.4174 29.3645 47.3514 29.3645H51.5545C52.4885 29.3645 53.0489 28.5239 52.9555 27.4965Z" fill="#29ABE2"/>
<path d="M48.9392 33.8477H12.5128C9.61734 33.8477 7.84272 36.6497 8.40312 40.1056L8.77673 42.534C9.33713 45.9898 12.2326 48.7919 15.0346 48.7919H46.2305C49.126 48.7919 51.928 45.9898 52.4884 42.534L52.9554 40.1056C53.6092 36.7431 51.7412 33.8477 48.9392 33.8477Z" fill="#29ABE2"/>
</g>
<defs>
<linearGradient id="paint0_linear" x1="29.8883" y1="0" x2="29.8883" y2="59.7766" gradientUnits="userSpaceOnUse">
<stop stop-color="white"/>
<stop offset="1" stop-color="white" stop-opacity="0"/>
</linearGradient>
<clipPath id="clip0">
<rect width="59.7766" height="59.7766" fill="white" transform="translate(0.837646 0.223358)"/>
</clipPath>
</defs>
</svg>
